# xmcd
# Track frame offsets:
# 150
# 15760
# 32584
# 49553
# 65344
# 82251
# 96571
# 114511
#
# Disc length: 1708 seconds
# Revision: 0
# Processed by: cddbd v1.5.2PL0 Copyright (c) Steve Scherf et al.
# Submitted via: VisiTrax 2.11.2.271 - For more info visit www.synapsa.com
#
DISCID=5c06aa08
DTITLE=Various Artist - EMI Country Music Sampler
DYEAR=2007
DGENRE=Country
TTITLE0=Rascal Flatts - Stand
TTITLE1=Trace Adkins - I Wanna Feel Something
TTITLE2=Dierks Bentley - Long Trip Alone
TTITLE3=Eric Church - Two Pink Lines
TTITLE4=Sara Buxton - Innocence
TTITLE5=Shedaisy - God Bless The American Housewife
TTITLE6=Kenny Rogers - Calling Me
TTITLE7=Slim Dusty - A Pub With No Beer
EXTD=
EXTT0=
EXTT1=
EXTT2=
EXTT3=
EXTT4=
EXTT5=
EXTT6=
EXTT7=
PLAYORDER=
